<?xml version="1.0" encoding="utf-8"?>
<!-- Generator: Adobe Illustrator 25.0.0, SVG Export Plug-In . SVG Version: 6.00 Build 0)  -->
<svg version="1.1" id="Capa_1" xmlns="http://www.w3.org/2000/svg" xmlns:xlink="http://www.w3.org/1999/xlink" x="0px" y="0px"
	 viewBox="0 0 28 34" style="enable-background:new 0 0 28 34;" xml:space="preserve">
<path d="M26.4,6.5h-4.5V3.2c0-1.4-1-2.6-2.2-2.6H8.4c-1.2,0-2.2,1.2-2.2,2.6v3.3H1.6C1,6.5,0.5,7.1,0.5,7.8v1.3
	c0,0.2,0.1,0.3,0.3,0.3h2.1l0.9,21.5c0.1,1.4,1,2.5,2.2,2.5h16c1.2,0,2.2-1.1,2.2-2.5l0.9-21.5h2.1c0.2,0,0.3-0.1,0.3-0.3V7.8
	C27.5,7.1,27,6.5,26.4,6.5z M19.3,6.5H8.7v-3h10.7V6.5z"/>
</svg>
