<svg id="Capa_1" data-name="Capa 1" xmlns="http://www.w3.org/2000/svg" viewBox="0 0 40.15 35.18"><defs><style>.cls-1{fill:none;stroke:#000;stroke-linecap:round;stroke-linejoin:round;stroke-width:2px;}</style></defs><path class="cls-1" d="M34.75,21v6a3.77,3.77,0,0,1-1.32,2.83A4.79,4.79,0,0,1,30.25,31H5.5a4.79,4.79,0,0,1-3.18-1.17A3.77,3.77,0,0,1,1,27V5A3.77,3.77,0,0,1,2.32,2.17,4.79,4.79,0,0,1,5.5,1h6.75" transform="translate(0 3.18)"/><path class="cls-1" d="M29,2.63l4.77,4.24ZM32-1.1,19.15,10.36a4,4,0,0,0-1.3,2.16l-1.19,5.3,5.95-1.06a5,5,0,0,0,2.44-1.16L37.93,4.14a3.64,3.64,0,0,0,.91-1.2,3.34,3.34,0,0,0,.31-1.42A3.37,3.37,0,0,0,38.84.1a3.75,3.75,0,0,0-.91-1.2,4.06,4.06,0,0,0-1.35-.8,4.68,4.68,0,0,0-3.19,0A4.06,4.06,0,0,0,32-1.1Z" transform="translate(0 3.18)"/></svg>