<svg id="Capa_1" data-name="Capa 1" xmlns="http://www.w3.org/2000/svg" viewBox="0 0 36.56 27.5"><path d="M36.71,13.57a20.77,20.77,0,0,0-7.16-9.45A20,20,0,0,0,18.5.25a20,20,0,0,0-11,3.87A20.77,20.77,0,0,0,.29,13.57a1.4,1.4,0,0,0,0,.86,20.77,20.77,0,0,0,7.16,9.45A20,20,0,0,0,18.5,27.75a20,20,0,0,0,11.05-3.87,20.77,20.77,0,0,0,7.16-9.45A1.4,1.4,0,0,0,36.71,13.57ZM18.5,22.12a7.78,7.78,0,0,1-4.4-1.36,8.18,8.18,0,0,1-2.92-3.65A8.28,8.28,0,0,1,12.9,8.25,7.89,7.89,0,0,1,17,6a7.81,7.81,0,0,1,4.58.46,8,8,0,0,1,3.56,3,8.28,8.28,0,0,1-1,10.25A7.84,7.84,0,0,1,18.5,22.12Z" transform="translate(-0.22 -0.25)"/><path d="M18.5,19.5a5,5,0,1,0-4.88-5A4.95,4.95,0,0,0,18.5,19.5Z" transform="translate(-0.22 -0.25)"/></svg>